<svg id="Graphic_Elements" data-name="Graphic Elements" xmlns="http://www.w3.org/2000/svg" viewBox="0 0 1200 1200"><title>5</title><path id="path4146" d="M553.57,1136.73c-4.12-5-6.77-16.58-6.79-29.77,0-11.09-.77-13.22-6.87-19.52-4.08-4.23-13.72-9.86-23.95-14-35.64-14.43-35.1-14.11-57.1-34.24-12.36-11.31-15.68-15.35-33-40.11-4.31-6.18-8.56-11.23-9.43-11.23s-6.27,4.32-12,9.6c-12.53,11.55-20.7,12.69-29.3,4.09-3.06-3.06-6.15-7.4-6.85-9.63-1.81-5.7-4.58-5.06-7.86,1.82-2.25,4.73-4.47,6-11.34,6.58-5.16.42-9.37,2.11-10.64,4.28-3.56,6.08-7.46,18.31-7.5,23.47,0,2.71-1.5,7.76-3.29,11.23-2.47,4.78-4.77,6.31-9.44,6.31-7.58,0-25.39-13.54-32.11-24.42-2.61-4.22-5.59-7.66-6.63-7.66-3,0-6.9-8.73-9.43-21.23-1.29-6.39-3.3-11.93-4.47-12.32s-4.56,4.35-7.52,10.54c-4.65,9.71-6.22,11.24-11.53,11.24-4.82,0-7-1.62-10.26-7.48-4.5-8.2-9.62-14.19-10.84-12.71-.43.52-5.39,10.57-11,22.33s-13,24.76-16.44,28.88-8.84,10.65-12,14.51c-7.47,9-19.73,11.6-26.45,5.56-4.1-3.68-4.38-5.54-3.17-21.43.73-9.56.71-21.84,0-27.27L155,994.28h-9.28c-8,0-9.7-.83-12.25-5.89-4.38-8.69-5.92-22.28-3.46-30.62,1.19-4,3.09-14.46,4.23-23.15,1.26-9.7,4.13-19.53,7.42-25.41,2.95-5.27,5.36-10.79,5.36-12.25s8.31-11.49,18.46-22.28,18.07-20,17.59-20.47-9-4.39-19-8.7c-12.67-5.48-22.31-8.12-32-8.78-22.23-1.52-27.62-2.8-29.95-7.16-4.65-8.69,11.12-37.21,24.48-44.27,9.79-5.17,33.37-11.35,43.35-11.35,6.73,0,9.59-1.05,11.24-4.14,5.89-11-.88-22-15.14-24.51-9.08-1.62-12.75-5.39-17.73-18.21-5.41-14-2.25-16.31,21.23-15.8,16.73.36,22.75-1.42,14.94-4.42-1.76-.67-4.79-5.2-6.73-10-3.31-8.28-3.95-8.74-10.17-7.44-3.66.76-15.31,2.22-25.9,3.24-18.84,1.82-24.8,3.61-47.58,14.32-6.17,2.9-13,4.71-15.16,4-6.84-2.17-10-11.45-9.89-29.1.09-13.89.94-17.79,5.35-24.4a42.73,42.73,0,0,1,13.27-12c4.41-2.3,8-5.59,8-7.32s-3.27-7.44-7.28-12.69a44,44,0,0,1-8.79-35.23c2.32-13.73,6.26-15.71,32.09-16.09,22.53-.33,27.28-1.89,19.28-6.32-20.05-11.12-32.07-29.58-38.47-59.06-1.91-8.83-6-24.15-9-34.06-5.51-17.9-5.52-18.18-2.78-46,3-30.05,5.63-36.66,13.73-34.13,5.84,1.82,6.59,3.12,13.28,23.27,6.82,20.49,15.26,37.37,19.51,39,1.76.68,5.08-1.16,7.7-4.27q16-18.91,38.38-2.51c5.63,4.13,11.09,9.75,12.13,12.49,1.88,4.93,6.19,7.69,12,7.69,4.76,0,3.6-4.14-3.38-12.09-5-5.72-6.42-9.32-6.42-16.6,0-10,2.14-12.93,11.25-15.22,8.37-2.1,7.25-6.57-2.75-11-9.83-4.3-19.19-13.68-19.19-19.23,0-15.24,11.94-22.72,40.64-25.45,21.25-2,26.37-5.16,33.82-20.78.42-.88-2.06-1.6-5.51-1.6-8.49,0-20.23-4.08-23.5-8.17a15.25,15.25,0,0,1-2.67-8.19c0-3.92-1.52-5.1-8-6.2-14.26-2.41-33.56-8.06-38.61-11.29A22.94,22.94,0,0,1,163.21,291c1.74-9.63,4.55-15.45,7.46-15.45,1.19,0,11-4.33,21.68-9.63s22.49-9.64,26.11-9.66c14-.06,13.6-2.89-2.89-19.51S191.21,207.66,192.3,200c.6-4.21,2.11-4.7,16.17-5.27C217,194.36,224,193.14,224,192s-2.63-6.16-5.83-11.14c-8.88-13.78-13.67-24.87-16.82-39-3.77-16.85-3.71-21.47.34-25.52,3.61-3.61,15.87-4.56,19.21-1.48,2.52,2.32,25.17,10.88,34.93,13.19,10.84,2.57,16.11-.48,20.45-11.83,6.62-17.34,17.86-16.72,34.85,1.92,5.61,6.16,11.67,15.29,13.47,20.3s4.19,9.16,5.32,9.21c4.93.27,9.28-12.54,9.43-27.77.15-14.68.47-15.68,5.65-17.65,7.6-2.89,14.19-.78,22.62,7.23,9.34,8.87,28.87,34.5,35.45,46.5,7.16,13.07,12.29,17,20,15.5,3.71-.74,7.61-.15,9.54,1.45,4.94,4.1,6.27.94,3.51-8.29-1.48-4.93-2.48-23.58-2.48-46V80.83l6.95-4.36c7.89-4.94,17.89-4.62,29.67,1,9.2,4.36,41.66,34.09,45.65,41.8,1.65,3.19,4.56,13.91,6.47,23.83s4.36,20.2,5.45,22.84c2.1,5.12,6,6.62,5.61,2.14-.78-8,3.82-28.48,7.85-35.09,2.56-4.18,10.18-13.74,17-21.23,9.32-10.32,12.3-15.21,12.3-20.16,0-4.27,1.3-7,3.74-7.94,2.06-.77,8.65-6.51,14.65-12.77C597.44,62,601.24,59.5,606.38,59.5c12.09,0,19.22,6.14,25.18,21.68C634.55,89,638.8,97,641,99c3.88,3.51,17.77,36.85,20.31,48.75,1.73,8.1,4.81,7.41,16.08-3.58,5.33-5.2,14-11.77,19.32-14.6s19.73-10.84,32.09-17.81c19.91-11.24,23.76-12.66,34-12.56,9.84.11,12.26,1,16.58,6,2.79,3.23,5.06,7.33,5.06,9.1s-4.63,8.21-10.28,14.32a139.22,139.22,0,0,0-27.89,44.25c-9,23.23-6.14,28.77,8.18,15.83l8.82-8,7.45,3.55a83.92,83.92,0,0,0,8,3.56c.32,0,7.79-7,16.59-15.51,21.45-20.8,30.31-27.46,47.14-35.48,26.66-12.7,39.52-8,39,14.18-.23,9.59.55,12.6,4,15.41s4.64,7.22,5.86,21.05c.84,9.65,2.09,18.1,2.76,18.77,2.72,2.72,10.37-2.15,23.45-14.9,16.84-16.43,26.75-22.77,35.62-22.77,5.79,0,6.94.91,8,6.41.7,3.53,1.63,6.42,2,6.42,2.1,0,24-14.38,29.14-19.11,6.71-6.2,19.54-11.22,24.16-9.45,3.23,1.24,3.88,4,3.24,13.91-.49,7.52,1.48,8.36,11.68,5,9.45-3.15,41.82-8,43.32-6.52,3.16,3.16.24,17.37-5.41,26.39-3.5,5.58-9.46,15.92-13.25,23s-9.92,15.77-13.64,19.36-11.56,12.35-17.44,19.47-14.31,15-18.72,17.59c-7.31,4.26-10.43,8.6-6.42,9,.89.08,7.52.44,14.74.8s14.2,1.31,15.51,2.12c4.14,2.56,2.57,9.55-3,13.18-2.94,1.92-5.35,4.71-5.35,6.18s6.41,6.42,14.24,11c14.71,8.57,20.42,15.33,24.64,29.16a24.43,24.43,0,0,1,0,16c-1.32,4.41-3,10.19-3.7,12.83-2.31,8.63-8.09,9.72-21.87,4.12-13.54-5.5-32.11-8.73-37.75-6.57-2,.75-5.38,5.14-7.61,9.76L985.78,387l11.45,5.24a132.21,132.21,0,0,0,22.35,7.58c25.43,5.45,22.91,18.61-5.7,29.77-11.59,4.52-22,12.67-22,17.23,0,1.11,5.06,2,11.23,2.08,10.34.06,11.66.65,16.58,7.5,6.46,9,10.31,10.15,32.83,10,24.46-.14,30.49-.53,46.51-3.08,11.19-1.77,15.37-1.62,20.23.72,13.54,6.52,13.71,35.73.33,55.25-10.2,14.88-25.1,30-34.07,34.58-9.89,5-10.12,7.37-1.12,11.26,3.82,1.65,12,8.21,18.23,14.58,9.75,10,11.45,13,12.48,22.17.67,5.81,0,16.83-1.39,24.48s-3.2,20.91-3.93,29.49c-.88,10.26-2.43,16.32-4.54,17.75-5.58,3.76-23.64.51-29.77-5.36a53.62,53.62,0,0,0-14.08-8.8c-4.7-1.93-12.4-7.21-17.11-11.74-9.22-8.87-20.18-13.25-20.52-8.21-.11,1.6-.08,6.76.07,11.47.22,6.9-1.36,10.68-8.19,19.6-4.65,6.07-7.89,11.6-7.22,12.28s6.32.63,12.54-.1c9.68-1.14,12.62-.55,20.52,4.11,16.12,9.51,27.13,24.68,24.2,33.37-1.44,4.3-16.12,14.19-38.51,26-9.41,5-18.08,9.73-19.25,10.62s-5.64,2.75-9.91,4.12c-6.07,2-8,3.89-9,8.86a12.18,12.18,0,0,1-6.55,8.76c-4.77,2.18-8.86,7.75-7,9.58.4.4,8,2.13,17,3.84,19,3.64,31.89,9.69,40.58,19.09s23.1,39.09,23.1,47.4c0,12.13-4.33,13.87-42.93,17.25-19.12,1.67-35.26,3.54-35.86,4.14s4.24,6.14,10.77,12.31c15.8,14.94,17.78,18.46,25,44.53,9.09,32.73,10.84,42.56,8.59,48.46-3.09,8.15-2.29,17.19,2.33,26.25,6.24,12.23,5.36,20.39-4.28,39.57-5.17,10.3-8.56,20-8.56,24.62,0,8.84-5,17.09-10.43,17.09-5.85,0-20.33-13.59-26.08-24.49-5.55-10.49-6-10.69-32.23-15.67a133.29,133.29,0,0,1-23.07-7c-12.21-5.25-15.07-9.34-39.63-56.55-14.26-27.4-19.15-34.11-23.63-32.39-4.29,1.65-4.05,6.76,1,21.9,8.28,24.75,3.47,41.32-13.71,47.22-11.25,3.86-15,7.59-18.38,18.38-6.18,19.64-15.17,31.52-23.82,31.52-6.35,0-18.71-11.46-22.92-21.26-4-9.31-5.22-10.39-13.09-11.65-9.58-1.53-16-9.23-18.43-22.19-.72-3.84-2.21-7.53-3.3-8.2s-5.55,2.6-9.91,7.28c-11.14,11.93-16.59,13.17-21.32,4.84-4.29-7.52-8.2-8.44-10.13-2.37-1.78,5.62-46.63,50.52-54.55,54.61-7,3.63-40.31,7.57-50.57,6-9.42-1.45-10.8,2.7-3.06,9.21,12.81,10.78,8,23.09-14.84,38.3-15.12,10.05-21.31,11.66-25.49,6.62Zm25-26c2.61-1.83,4.75-5,4.75-7.06,0-5.33-5-15.35-7.28-14.61-1.6.52-7.28,18-7.6,23.4-.16,2.69,5.1,1.79,10.13-1.73Zm-4.3-58.22c2.29-6.8,3.73-15.37,3.19-19-.73-5,.27-7.94,3.93-11.6s4.77-6.92,4.35-12.81c-.65-8.92,3.23-25.48,6-25.48,1.5,0,6.58-15.76,6.58-20.43,0-1.89-11,.94-14.34,3.68-1.43,1.19-2.52,6.17-2.43,11.06.25,12.21-6.47,35.47-12.28,42.53-2.75,3.34-4.35,7.55-3.74,9.87.64,2.47-1.09,6.35-4.47,10-3,3.28-5.52,6.93-5.52,8.12,0,2.94,10.47,16.47,12.75,16.47,1,0,3.71-5.57,6-12.36Zm59.2,3.55c15.85-8.26,36.43-26.91,50.39-45.66,9.15-12.3,15.31-18.81,28.75-30.37,12.13-10.43,12.44-16.5.74-14.31-15.33,2.88-39.62,12.08-48.74,18.47-11.63,8.13-53.51,43.91-57.15,48.81-1.43,1.93-6.06,5.14-10.29,7.15s-8.24,5.08-8.91,6.84c-2.91,7.57,3.88,5.87,23.38-5.86,21.86-13.16,31.57-17.07,31.57-12.71,0,1.39-1.2,3.72-2.67,5.17-4.65,4.6-31.51,22.42-35.9,23.81-4.74,1.5-5.55,4.52-1.57,5.85,4.51,1.5,21.39-2.49,30.4-7.19Zm361.87-2.43a92.17,92.17,0,0,1,7.54-12.05c5.21-6.68,5.07-17.58-.3-23.77-2.86-3.3-4.34-8.19-4.45-14.77-.16-9.62-.22-9.7-2.46-3.42-4.67,13.09-11.8,10.33-13.9-5.37-3.13-23.3-49.55-85-73.11-97.2a23.37,23.37,0,0,1-8.5-8.18c-2.1-3.92-5.84-5.92-14.88-7.94-6.63-1.48-22.19-6-34.55-10.16-26.34-8.73-41.06-8.81-58.84-.31-16.63,7.95-20.33,15.26-20.33,40.17,0,11.49-1.54,27.15-3.5,35.52a222.81,222.81,0,0,0-4.46,27.8c-.53,7.06-1.84,13.75-2.92,14.87-4.4,4.57-1.33,24.41,4.78,31,3,3.18,6.78,4.42,13.54,4.42,10.36,0,11.35.9,16.23,14.8,4,11.42,7.71,13.38,9.74,5.14.82-3.32,4.22-9.38,7.57-13.47s6.08-8.52,6.08-9.83c0-4.13,7.17-9.05,15.43-10.58,12.62-2.35,13.38-4.76,7.93-25-2.63-9.76-5.36-23-6.08-29.52-.73-6.63-3.49-15.31-6.33-19.9-3.7-6-4.68-9.88-3.7-14.77,1.62-8.09,5-12.39,9.61-12.39,5.41,0,15.25,10.3,16.68,17.45,1.5,7.5,10,12,14.9,8,3.71-3.08,4.92-2,6.33,5.88.6,3.38,2,7.06,3.11,8.18a8,8,0,0,1,2,4.91c0,1.58,4.57,9,10.16,16.6s14.88,21,20.65,30,12.59,17.66,15.15,19.34c5.76,3.78,22.35,8.68,36,10.64s22.19,9.3,25.26,21.48c1.3,5.18,3.2,9.42,4.2,9.42s3.44-3.13,5.4-7Zm-77.58-59.89c-14.37-22-16.3-27.46-8.78-24.57,3.67,1.41,18,24.53,19.87,32.12C931.27,1010.83,927.05,1008,917.78,993.74Zm-116.25-1.27c0-6.88-.63-22.76-1.4-35.3-1.19-19.4-.92-22.79,1.8-22.79,3.77,0,7.73,20.57,8.43,43.85.73,24.08.28,26.74-4.56,26.74C802,1005,801.53,1003.55,801.53,992.47Zm135.21,2.69c-9.48-16.06-24.8-33.69-41.85-48.2-10.81-9.2-16.09-15.22-16.2-18.46-.24-7.13,4.78-5.9,13,3.21a85.49,85.49,0,0,0,13.61,12.1c3.5,2.24,7.16,5.44,8.15,7.1s7.81,9.93,15.17,18.38C944,986.92,947,991.84,947,999.48c0,8.24-3.76,6.65-10.24-4.32Zm15.1,1.79a88.28,88.28,0,0,1-6.75-12.3c-4.4-10.26-15.28-24.57-29.34-38.58-22.62-22.54-26.46-32.57-7.89-20.62,20.24,13,34.11,30.06,48.79,59.93,7.69,15.66,4,24.55-4.81,11.57Zm14.25-4.28c-9.31-20.86-15.38-32.62-16.83-32.62-.82,0-3.55-3.66-6.06-8.14-5.21-9.26-26-29.69-36.33-35.77-6.72-3.94-8.82-8.15-5.19-10.4S916.4,911.48,931.4,927c8.5,8.77,16.33,16,17.42,16s4.1,4.57,6.7,10.16,6.05,11.64,7.65,13.46c4,4.54,13.4,30.32,12.22,33.6-1.81,5.05-4.78,2.66-9.31-7.49ZM824.22,994.1c-.53-1.67-2.14-9.77-3.57-18s-3.91-19.72-5.51-25.52c-5.23-18.89-2.74-30.25,4.28-19.54,4.59,7,11.42,60.46,8.14,63.74C825.83,996.49,824.93,996.31,824.22,994.1Zm-37.56-14.6c-2.65-5-3-21.59-.49-21.59,1,0,1-5,.15-11.23-2.52-17.72-2.42-18.45,2.37-17.2,4,1,4.28,2.92,4.28,26.42,0,24.87-1.88,31.89-6.31,23.6Zm-10.14-39.62c.26-6.39,1-12.19,1.74-12.89,1.62-1.62,4.27,20.22,2.75,22.67-3,4.87-4.91.71-4.49-9.78ZM538.39,1053.63c-.07-5.4-3.57-7.82-18.19-12.58-16-5.21-35.26-17.44-35.26-22.38,0-4.12,1.33-3.83,16.05,3.41,7.06,3.48,14.63,6.35,16.82,6.37s8.53,1.66,14.07,3.63c11.26,4,17.24,2.87,17.24-3.27,0-2.65-2.84-5.41-8-7.81a61.64,61.64,0,0,1-13.4-8.72c-6.65-6.19-20.57-11.34-37.27-13.79-13.14-1.93-39.78-13.89-48-21.55a78.74,78.74,0,0,1-10-12.75c-5.29-8.38-11.68-11.26-11.68-5.27,0,7.68,11.23,27.27,24.06,42,16.35,18.76,35.6,32.29,64.95,45.67,21.87,10,28.66,11.66,28.61,7.07ZM185.23,1028c9-9,21.63-31.26,21.63-37.91a9.82,9.82,0,0,1,1.77-5.54c1-1.11,3-6.07,4.59-11s3.94-9.41,5.32-9.94c5.84-2.24,14.42,1.73,20.61,9.55,3.62,4.57,7.93,8.3,9.58,8.3,4.9,0,9.47-14.43,9.47-29.86,0-14.12,6.14-43.6,11-53,3.09-5.93,9.56-8.18,13.67-4.77,4.61,3.83,3.79,13.69-2.24,26.86A54.64,54.64,0,0,0,275.32,945c0,27.65,12.64,62.1,22.79,62.1,4.08,0,3.56-3.52-1.54-10.43-3.26-4.41-4.24-8.45-3.73-15.42l.69-9.44,3.73,8.28c2.05,4.55,3.72,10.51,3.72,13.24s1.07,5.62,2.38,6.43,1.89,4.42,1.25,8.42c-.94,5.78-.26,7.41,4.08,9.73,3.18,1.71,5.93,2,7.05.8,3.12-3.38,13.37-33.21,17.59-51.18,6.63-28.22,6.82-30.43,3.8-44.06-2.43-11-4.95-15.42-15.25-27.09-6.79-7.69-12.34-14.65-12.34-15.46,0-6.6-41.77-9.28-48-3.08-1.84,1.85-3.36,4.68-3.36,6.29,0,4.91-4.75,6.21-7.74,2.12-3.64-5-8.82-1.21-9.78,7.1-.39,3.37-2,5.73-3.87,5.73-2.33,0-3.39-2.9-3.87-10.56-.5-7.87-2.31-12.63-7.14-18.72-6.24-7.88-6.91-8.16-19.71-8.16H192.84L179.64,875c-15.22,15.43-30.08,44.53-31.95,62.57a117.77,117.77,0,0,1-3.26,17.77c-1.54,5.08-1.41,8.86.46,13.38l2.61,6.31,8.3-7.5c9.9-8.95,12-9.24,14.75-2s2.68,57.87-.15,63.15c-2.48,4.64-1.1,8.37,3.1,8.37,1.51,0,6.79-4.08,11.73-9.07Zm121.64-47.26c-.89-2.15-1.61-12-1.61-21.89,0-21.58-3.67-37.52-8.46-36.75-2.23.36-3.07-.86-2.59-3.75,1.9-11.37,8.94-9.45,12.73,3.47,2.93,10,2.86,66.1-.07,58.92Zm12.65-9.27c-2.15-2.15-1.71-51.62.47-53,1.05-.65,3.07.23,4.5,2,1.91,2.31,2.18,9.65,1.05,27.79C324.1,971.26,323.12,975.06,319.52,971.46ZM289,958.82c-.78-3.1-.33-6.55,1-7.91,1.78-1.79,2.41-.37,2.41,5.5C292.43,965.63,291,966.66,289,958.82ZM197.72,916c-2.72-2.71-1.66-18.13,1.73-25.27,1.8-3.81,7.1-10.64,11.76-15.2l8.49-8.29v5.85c0,3.22-1.36,6.37-3,7-3.41,1.3-12,19.87-12,26C204.73,911,199.79,918,197.72,916Zm-16.52-14c0-2.76,2.81-7.66,6.29-10.94s6.89-7.83,7.63-10.15c1.39-4.37,5.33-5.87,5.33-2,0,1.2-2.17,5.81-4.82,10.24s-5.84,9.89-7.1,12.13C185.1,907.27,181.2,907.67,181.2,901.93Zm34.65-7.63c.51-9.69,1.43-12.43,4.38-13,4.47-.85,5.13,7.84,1.4,18.54S215.15,907.76,215.85,894.3Zm140.75,85c3-3,4.34-7.33,4.49-14.44.81-39.22,1.21-47,2.59-50.8,1.26-3.44.2-4.9-5.41-7.49-5-2.32-7.57-5.34-9.14-10.92-1.18-4.25-3.37-9.17-4.85-10.94-2.87-3.43-24-15.05-24-13.19,0,3,5.33,10.3,14,19.2,5.25,5.4,9.56,11,9.56,12.54s2.4,6.26,5.34,10.6c5.38,7.92,6.92,14.1,3.52,14.1-1,0-2.45,6-3.21,13.37s-2.47,18.34-3.81,24.42C341.86,982.73,346.92,989,356.6,979.3Zm625.5-21c-.77-4.79-3-10.45-5-12.59-5.17-5.6-19.45-29.63-19.45-32.72,0-1.52,1.43-2.08,3.38-1.33a19.49,19.49,0,0,0,5.47,1.3c1.15,0,7.9,12,15,26.75,12.06,24.93,16.78,32.47,16.78,26.77,0-1.29-2-6.31-4.49-11.16a134.92,134.92,0,0,1-7.57-19.17c-1.7-5.69-4-10.35-5.11-10.35s-3.47-3.48-5.25-7.72c-3.2-7.67-2.63-12.73,1.18-10.37,1.09.67,2-.11,2-1.74,0-6.59-11.2-13.15-33.69-19.73-16.25-4.75-27.54-9.66-38.51-16.73-14.13-9.11-15.5-10.63-15.5-17.1,0-6,1.26-7.82,8.31-11.78,4.57-2.57,10.35-4.68,12.83-4.68,3,0,4.53-1.35,4.53-4.12s3.21-5.74,9.68-9c8.44-4.21,10.59-4.51,16.73-2.29a43.63,43.63,0,0,0,11.68,2.55c2.55,0,9.7,1.93,15.89,4.28s14.75,4.28,19,4.28c5.87,0,8,1,8.85,4.11.67,2.56,3.32,4.38,7,4.81,8.08,1,9.15,5.6,1.63,7.08-3.32.65-10.14,2.12-15.15,3.28s-15.78,2.11-23.9,2.11c-12.4,0-15.76-.82-20.83-5.05-3.47-2.9-10.48-5.7-16.47-6.59l-10.43-1.54,4.6,6.46c2.52,3.55,9.62,8.85,15.77,11.78,15.6,7.43,29.54,8.77,46.47,4.47,7.65-1.94,21.45-5,30.67-6.82,9.37-1.85,17.24-4.56,17.85-6.16,2.41-6.29-17.25-31.83-29.51-38.32-10.16-5.38-53.1-13.85-70.22-13.85-13.85,0-19.35,1.19-35.38,7.65-24,9.67-36.59,19.81-43.18,34.68-4.6,10.4-4.75,11.82-1.85,17.42,2.71,5.26,5.43,6.61,19.5,9.74,16.76,3.73,31,12.51,46.7,28.85,7.24,7.51,13,8.28,16.24,2.17,1.83-3.42,3.14-3.86,6.36-2.14s3.8,3.73,2.86,9.49c-1,6.37.1,8.89,8.69,19.45,5.44,6.67,9.88,12.82,9.88,13.66s1.72,3.41,3.82,5.69,5.57,8.78,7.71,14.44c4.58,12.07,6.29,12,4.34-.25ZM609,950c16.92-1.55,27.63-7.31,42.15-22.67,8.35-8.83,11.57-14.4,15.17-26.27C668.85,892.8,673.64,882,677,877c5.83-8.67,19.18-19.61,23.93-19.61a16.42,16.42,0,0,0,6-2c2-1.12,10-4.12,17.62-6.67,16.28-5.42,19-7.37,15.33-11-2.08-2.09-4.51-1.7-11.66,1.87a115.68,115.68,0,0,1-18.64,7c-5.3,1.38-14.56,4.45-20.58,6.82-6.71,2.63-14.54,4-20.21,3.63-9-.66-9.35-.94-14-12.44-3.87-9.68-5.71-11.89-10.4-12.45-7-.84-12.09,3-10.29,7.66.73,1.9,4.68,6.4,8.78,10,8.44,7.41,17.45,25.86,17.45,35.74,0,3.63-2.05,10.58-4.56,15.45l-7.49,14.52c-1.61,3.12-2.93,7.63-2.93,10,0,5.52-4.71,7-20.5,6.27-10.61-.47-13.86.3-20.14,4.78-13.42,9.57-36.28,5.9-51-8.2-8.17-7.83-15.35-24.66-15.35-36,0-2.83-2.41-11.06-5.35-18.3-7-17.1-7.6-38.1-1.19-38.1,5.66,0,7.71-4,4-7.77-4.74-4.74-9.94-1.26-12.75,8.53-2.55,8.88-2.79,17.84-1.06,39.89,1.45,18.38,10.28,44.35,16.38,48.12,1.18.73,2.15,3.2,2.15,5.48,0,3.88-1.69,4.15-25.62,4.15-35.09,0-49.09-4.56-67.81-22.06-7.44-7-13.52-13.52-13.52-14.58s-3.52-7.22-7.81-13.68c-8.22-12.38-15.53-18-29.63-22.88-13.48-4.65-38.33-24-45.79-35.58a74.76,74.76,0,0,1-8.89-22.52C339.44,792,339.67,790.2,344,783.2c4.61-7.46,4.64-7.8.79-10.62-4.9-3.58-6.73-3.65-8.78-.34-2.81,4.55-2.63,28.16.29,38.08,1.56,5.29,3.44,13.25,4.18,17.68,1.07,6.39,3.13,9.18,9.87,13.44,5.86,3.7,8.92,7.38,9.8,11.77,1.61,8,3.65,9.31,9.34,5.84,3.88-2.36,5-2.15,8.21,1.53a41.31,41.31,0,0,0,7,6.42c23.45,15.11,30.06,21,45.66,40.64,4.67,5.89,9.47,11.09,10.67,11.57s6.05,4.89,10.79,9.82,11,9.49,13.91,10.15,11.06,2.79,18.11,4.73c9.32,2.58,20.17,3.43,39.58,3.12,27.72-.45,50.07,1.46,55.61,4.75,1.77,1,6.1,1.37,9.63.71S601.36,950.73,609,950Zm75.18-10.16c14.75-4.47,23.3-9.28,32.84-18.47,4.71-4.53,15.78-11.89,24.6-16.35,15.42-7.79,20.25-13.65,12.47-15.15-4.06-.78-24.21,8.79-30.65,14.56-10.56,9.46-43,25.53-54.55,27.07-15,2-17.11,2.86-17.11,7.17,0,3.69,1.46,4.24,11.23,4.22A88.73,88.73,0,0,0,684.19,939.87ZM594,928c5.38-2.88,8.94-20.12,6.41-31.12-1.07-4.66-1.49-20.41-.94-35,.7-18.55.24-27.43-1.52-29.56-3.79-4.56-3.79-66.49,0-68.83,4.83-3-3.3-9.13-11.07-8.37-5.84.57-6.67,1.48-7,7.62-.19,3.83-1.5,8.37-2.93,10.09-3.9,4.69.17,40,5.31,46,5.38,6.35,6.89,24.54,5.51,66.31-.76,22.94-1,42.44-.65,43.32,1,2.11,2.11,2,6.85-.51Zm-81.24-54.34c0-5.81-14-23.19-22.6-28a66.27,66.27,0,0,0-17.78-6.41c-6.86-1.16-9.56-2.8-11-6.67-2.64-7-6.45-6.51-6.18.74a38.34,38.34,0,0,1-1.29,10.7c-1.4,4.5-.88,4.81,8.11,4.81,13.41,0,23.39,4.75,36.06,17.15,11.22,11,14.72,12.82,14.72,7.68ZM336.28,849.33c13.33-2.58,9-5.87-7.57-5.72q-22.5.21-18.06,7.41c1.56,2.53,5,2.3,25.63-1.69Zm-81.56-10.26c4.74.76,9.87,2.42,11.4,3.69,2.18,1.81,2.78.82,2.78-4.61,0-6.21.51-6.78,5.1-5.63,3.92,1,5.36.29,6.22-3a5.72,5.72,0,0,1,5.31-4.26c3.16,0,4.51-1.9,5.44-7.64,1.81-11.19-1.2-16.7-14.55-26.56-16.33-12.06-36.41-19.26-58-20.78l-17.57-1.24-3.34,6.46c-3.91,7.56-7.1,9.09-19.18,9.19-9.07.08-26.94,3.92-39.27,8.45-9.1,3.34-18.25,15.49-17.38,23.07.55,4.76,1.86,6,7.09,6.42A86.63,86.63,0,0,1,166.43,835c6.6,4,16.91,8.43,22.9,9.81,9.75,2.25,12.18,2,23.3-2.27l12.42-4.79,5.16,6.33,5.16,6.33,5.37-6.37c4.83-5.74,6.24-6.25,14-5ZM831.44,844c0-6.31-2-9.09-10.68-15.52-6.06-4.48-9.61-5.34-22-5.34-18.95,0-18.53,4.24.74,7.46,14.88,2.49,24.6,7.64,26.66,14.12,1.78,5.63,5.29,5.15,5.25-.72ZM991,841.18c3.93-3.18,3.77-3.3-3.07-2.14a88.14,88.14,0,0,1-11.23,1.22c-2.2,0-4,1-4,2.14C972.65,845.8,986.39,844.88,991,841.18Zm-360-25.45c-.56-2.91-2.35-6.39-4-7.75-2.37-2-3-1.58-3,1.9,0,6.43,2.23,11.13,5.28,11.13,1.7,0,2.32-1.93,1.68-5.28Zm-72.34-4.55c1.54-6.13-3.91-16.89-7.44-14.71-2.88,1.78-2.55,16.76.44,19.75C554.86,819.48,556.88,818,558.6,811.18ZM475,810.24c6.41-2.4,12.82-5.77,14.25-7.49,4-4.81-7.22-4.08-22.6,1.48-9.23,3.34-17.06,4.52-28.27,4.27-14.23-.32-17.87.89-14.08,4.67.78.78,9.89,1.42,20.24,1.42C458.27,814.59,466.56,813.41,475,810.24ZM461.5,796.7c6.42-1.61,17.76-4.16,25.19-5.67,12-2.44,14.9-4.12,25.89-14.94,12.59-12.39,32.26-40.42,32.26-46a28.33,28.33,0,0,1,1.91-8c1.06-2.7,3.13-9,4.6-13.94,2.84-9.53,20.18-31.79,28.27-36.29,2.64-1.46,9.39-2.69,15-2.74,8.85-.06,11.22.92,17.57,7.26,4,4,8.64,8.13,10.23,9.09,3.72,2.26,13,30.84,17.52,54.17,6.94,35.51,17.52,53.52,34.06,58,12.1,3.25,23.85.84,43.18-8.87l16.88-8.48,10.49,3.48c12.76,4.24,32.58,3.06,45.51-2.72,15.25-6.81,28.64-28.32,35.84-57.57,1.47-6,3.49-12.21,4.49-13.9,5.57-9.38,17.65-21.85,26.91-27.79,11.48-7.37,13.92-12.51,11.93-25.14-1-6.4-4.81-11.37-20-26.14-11-10.65-21.91-19.27-26.28-20.73-30.33-10.13-43.86-15.79-48.82-20.43-3.15-2.95-7.92-6-10.6-6.84-6.89-2.08-11-9.5-9.66-17.65.91-5.71,2.93-7.79,12-12.3,6-3,13.41-5.42,16.5-5.42,7.69,0,26.65,5.64,39.54,11.77,14.81,7,35.8,10.22,60.95,9.24,21.27-.82,21.36-.85,29.39-8.7C924,548,929.87,531,929.87,508.74c0-21.42-3-27-25.19-46.46-22.87-20.08-29.6-30-32.56-48.16-5.1-31.34-10.23-44.49-22.19-56.92-14.06-14.6-19.78-17.48-37.71-19-26.83-2.25-54.4,12.19-65.65,34.39-3,5.91-7.7,12.52-10.47,14.7a32.89,32.89,0,0,0-7.77,9.56c-1.6,3.28-5.8,6.64-10.1,8.07-4.05,1.35-7.77,3.83-8.27,5.52-4.12,13.86-29.59,9.8-34.65-5.52-3.82-11.58,2.31-24.48,23.94-50.38,4.49-5.37,8.16-10.59,8.16-11.6s1.5-3.5,3.34-5.53c4.77-5.27,9.44-24.48,9.47-39,0-18.5-5.73-28.28-20.72-35.14C689.06,258.54,685.65,258,672,259c-9,.68-19.94,3.13-25.91,5.81-15.4,6.89-42.8,5.78-54.19-2.19-12-8.39-31.94-17.06-39.27-17.06-15.17,0-27.58,4.89-37.7,14.86-5.32,5.24-11.55,10.54-13.85,11.78-9.66,5.24-14.57,34.28-9.5,56.22,4.88,21.13,7,26.23,15,35.87,13.94,16.87,13.57,33.11-.92,40.29-6.26,3.11-9.26,3.48-14.15,1.78-7.32-2.55-19.77-14.57-31.69-30.59-10.44-14-15.32-18.51-30.47-28.05C412,336.82,404.75,335,388.06,337.37c-16.27,2.3-41.19,13.64-44.74,20.35a96.32,96.32,0,0,1-9.17,12.47c-8.46,9.94-11.78,20.65-11.78,38,0,12.26-.72,14.43-8.15,24.35-14.61,19.52-23.44,34.27-25,41.83-.87,4.08-2.6,9.06-3.85,11.06-1.65,2.65-1.26,8.47,1.46,21.46,5.78,27.61,6,28.14,11.3,34.56,2.77,3.33,5,6.86,5,7.86,0,3.76,11.47,15.24,17.91,17.92,10.12,4.22,26.39,5.55,43.06,3.52,8.23-1,24.73-3,36.66-4.54,19.69-2.48,22.2-2.39,27.27.93,7.42,4.86,7,9.18-1.52,17.21-5.86,5.5-11.58,7.74-32.62,12.74-28.66,6.81-39.55,12.55-59.43,31.31-14.35,13.54-20.15,23.55-22,38-.73,5.59-2.09,11.67-3,13.51-2.57,5,12.19,21.06,21.55,23.38,4.12,1,15.67,4.67,25.67,8.11,16.42,5.64,18.74,7.14,24,15.42,3.19,5,7.4,16.5,9.34,25.45s5.43,19.39,7.72,23.19c5.19,8.61,20,21.43,26,22.62C433.71,800.11,450.43,799.47,461.5,796.7Zm196-39.33a98.22,98.22,0,0,1-3.63-10.16c-1.5-4.7-4.37-12.4-6.4-17.11s-5.36-14.33-7.41-21.39c-7.7-26.49-20.52-46.42-32.38-50.34s-15.83-9.68-15.83-22.43c0-6.06-.64-11.64-1.41-12.42-2.41-2.41-7.15,3.11-7.15,8.34,0,2.74-1.68,5.93-3.74,7.09-3,1.69-3.21,2.65-1.07,4.81,4.83,4.88,3,12-4.28,17a143.19,143.19,0,0,0-13,10.31c-7.36,6.74-22.65,34.39-30.27,54.73-6.3,16.83-10.8,24.6-14.24,24.6-2.87,0-1.82-5.81,5.6-31,7.11-24.13,16.33-43,25.24-51.71,27.46-26.77,27.56-26.92,25.92-39.27-2.1-15.89-9.41-13.6-9.41,2.94,0,9.43-13.92,30.11-18.89,28.06-7.64-3.15-11.06-3.53-11.06-1.22,0,1.33-2.89,5.43-6.42,9.13-7.29,7.62-7.77,9.37-3.11,11.16,2.55,1,2.79,2.21,1.08,5.42-1.23,2.29-1.76,5.43-1.19,7,1.43,3.9-2.18,9.05-5.09,7.25a5.88,5.88,0,0,1-2.38-4.55c0-6.12-4.69-2.9-8,5.47-3.92,10-10.09,12.09-7.75,2.68a111.21,111.21,0,0,1,4.34-12.84c1.59-3.82,2.16-6.9,1.26-6.84-2.63.18-24.1,31.29-24.1,34.93,0,1.82-1.92,4.34-4.27,5.6-7.79,4.17-4.93-3.62,7.48-20.41,6.47-8.75,11.77-17.76,11.77-20,0-4,11.15-15.18,15.12-15.18,1.08,0,3.65-3.58,5.72-8s7.79-10.66,12.85-14c7.17-4.81,9.09-7.39,9.09-12.24,0-8.59-3.4-9.77-7.87-2.73-2.08,3.27-10.55,14-18.81,23.79s-19.49,23.58-24.94,30.6c-13.76,17.71-20.78,25.36-23.26,25.36-3.11,0-2.59-3.37,1-6.33,1.7-1.42,6-7.55,9.45-13.63s12.68-17.79,20.41-26,14.05-15.76,14.07-16.73,2.75-5.77,6.08-10.69c11.69-17.27,11.23-19-1.63-6.27-4.43,4.41-10.38,10.11-13.2,12.66s-10.43,11.54-16.9,20c-12.78,16.66-24.41,31.59-27.9,35.82-2.87,3.47-8.46,3.45-8.46,0,0-1.49,4.11-7.5,9.12-13.37s10.56-13.54,12.3-17.07,8.44-11.71,14.88-18.18c26.94-27.09,36.61-40.45,22.67-31.31-6.59,4.31-7.63,4.35-7.63.29,0-4.92-5.1-3.82-10.86,2.35a59.28,59.28,0,0,1-13.74,9.9c-4.71,2.38-13.09,8.31-18.62,13.16-19.33,16.94-25.25,21-28.55,19.77-5.48-2.11-.4-8.26,15.79-19.12,8.17-5.48,16.32-10.53,18.11-11.22s3.81-3.47,4.5-6.18,4.34-6.42,8.45-8.37,8.43-4.88,9.91-6.67c2.29-2.75,1.9-3.25-2.54-3.25-2.88,0-10.56,4.09-17.06,9.09-30,23.09-45.48,32.47-50.37,30.6-4.42-1.7-.08-6.78,9.83-11.52,9-4.29,10.68-8,4.55-10-6.33-2-4.54-7.34,4-11.91a75.85,75.85,0,0,0,11.76-7.88c6.35-5.6,15.37-11.51,25.53-16.75,9.51-4.89,7.8-8.91-2.09-4.93l-10.32,4.16c-2.36.95-7.74,2.78-12,4.07s-8.9,4.6-10.5,7.58c-3.08,5.77-15.57,10.21-41.6,14.78-8.3,1.46-19.8,4.76-25.57,7.33-11.15,5-14.31,4.57-10.62-1.36s17.05-12.32,32.31-15.2c8-1.5,22.17-5.06,31.58-7.91,16.73-5.07,17.2-5.4,21.07-14.78,3.75-9.11,4.39-9.6,12.5-9.6,9.32,0,21-6.69,21-12,0-2.67-2.46-3-14.83-1.73-12.83,1.26-16.16.81-24.72-3.33-10.44-5.06-20.17-5.11-44.95-.23-14.39,2.83-49.53,2.9-54.74.11-8.12-4.34-1.94-6.86,13.16-5.38,15.7,1.55,32.84-.9,55.17-7.87,13.12-4.1,25-4.28,41-.61,5.59,1.29,12.73-1.82,10.14-4.41-.82-.83-10.67-2.28-21.89-3.22-15.59-1.32-22.39-1-28.87,1.27-11.62,4.1-31.1,5.81-43.42,3.81-14.89-2.42-12.55-6.08,3.35-5.24,8.74.46,19-.83,29.85-3.75A138.57,138.57,0,0,1,430.36,528c10,0,18.22-.75,18.22-1.67,0-3.18-32.66-6.9-41.71-4.75-11.95,2.85-47.53,2.71-49.32-.18-3.28-5.32,4.57-6.38,47.91-6.47,24.92-.06,44.8-.92,44.17-1.93-1.81-2.94-21.53-6.22-50.25-8.35-27.44-2-39.78-4.93-37.41-8.77a2.67,2.67,0,0,1,3.7-.72c1.29.8,17.83,2.2,36.75,3.11s37.52,2.31,41.35,3.1c5.46,1.14,7,.74,7-1.85,0-5.23-21.29-10.28-44.32-10.51-16.17-.17-21.17-1-24.86-4.07-4.51-3.76-4-3.86,20-3.92,13.53,0,28,.8,32.09,1.86,13.79,3.52,21.39,4.39,21.39,2.43,0-1.07-2.17-2.55-4.82-3.29A122.8,122.8,0,0,1,431,474.26c-2-1-8.89-2.48-15.28-3.23-12.14-1.42-18.28-3.87-15.85-6.31,1.38-1.37,17.57.94,41.77,6,21.94,4.57,15.56-3.41-9.08-11.36-16.38-5.28-24.82-11.18-21.18-14.81,2.47-2.48,11.5.24,32.05,9.64,14.06,6.43,22.4,7.74,23.81,3.74a1.92,1.92,0,0,0-1.9-2.71c-2.9,0-29.48-18.87-41.57-29.45a98.67,98.67,0,0,0-10.7-8.23c-2.23-1.33-3.3-3.22-2.36-4.19s3.82-.43,6.42,1.22,8.2,4.7,12.45,6.79S443,428.76,450,433.22s14.53,9.32,16.86,10.79c14.48,9.22,14.38,5.05-.21-8.41-6.78-6.26-16.74-15.58-22.13-20.7a160.23,160.23,0,0,0-14.62-12.54c-5.18-3.48-6.51-9.17-2.14-9.15,5.07,0,20.34,11.78,27.54,21.21,4,5.2,8.43,9.85,9.9,10.34,4.21,1.39,3.12-4.83-1.61-9.1-2.35-2.13-4.28-4.64-4.28-5.57,0-3.59-13.7-22.54-20.91-28.93-7.52-6.67-8.51-13.63-1.92-13.63,3.32,0,20.11,17.75,31.17,33,8.71,12,25.36,20.74,40.37,21.25l10,.34,1.24-9c.69-5,2.87-10.81,4.86-13,5-5.58,4.69-19.88-.67-26.7-2.36-3-4.28-6.12-4.28-6.95s-3.52-6.3-7.81-12.15c-8.12-11.06-11.93-24.22-9.93-34.33,1.73-8.74,3.9-7.2,7.94,5.65,2,6.34,5,13.32,6.72,15.51,2.93,3.79,3.19,3.8,5.35.19,3.17-5.3,6.28-2.59,6.32,5.52,0,9,5.64,25,7.23,20.73.65-1.77,1.45-9,1.77-16,.45-9.72,1.37-12.84,3.8-12.84,2.61,0,3.45,5,4.51,26.74,1.93,39.89,4.39,48,12.17,40.21,2-2,3.14-2,5.14,0,6,6,7.67,2.53,9.17-18.52,1.82-25.33,3.58-34.79,6.44-34.59,1.3.09,2.14,10,2.14,25.24v25.09l5.1-.56c2.8-.3,6.22,1,7.6,2.87,3.66,5,6.28.54,9.47-16.21,3.83-20.16,6.63-27.81,10.16-27.81,2.51,0,2.84,2.16,1.67,11.23-.8,6.18-2.28,13.46-3.29,16.18-2.17,5.87-2.41,16.22-.42,18.21,2.33,2.33,7.15-3,7.09-7.91-.11-9.38,13.9-54.82,16.91-54.82,3.31,0,2.65,5.67-3,25.67a172.36,172.36,0,0,0-4.61,26.14c-1.27,14.28-1.24,14.39,4.77,16.67,9.77,3.72,14.79,2,15.5-5.38.82-8.4,4.29-17.26,10.9-27.81,2.95-4.7,5.57-12.22,5.82-16.71.63-11.38,5.63-27.33,8.27-26.42,2.13.73,2.12,5.89,0,15.86-1.45,6.7,1.88,6,9-1.88,11.82-13.05,13.58-14.7,15.69-14.7,6.34,0-5.07,23.29-14.4,29.41-6.29,4.11-14,15.81-17.24,26.21-1.73,5.52-1.68,11.41.21,22.46l2.55,15,19.38.61c19.17.61,19.49.53,29-6.71,5.27-4,14.31-14.4,20.1-23.06,11.16-16.72,31.78-38.22,36.66-38.22s3.16,3-5.69,9.23c-4.68,3.31-8.51,7.48-8.51,9.27s-3.24,7.25-7.22,12.16A111.16,111.16,0,0,0,741,407.1a39,39,0,0,1-9.9,11.3c-6.47,4.76-8.93,11.16-4.3,11.16,4.82,0,21.6-14,29.87-25,4.73-6.25,10-11.37,11.73-11.37s3.14.47,3.14,1.05c0,2.54-16.53,22.37-27.16,32.59-9.34,9-14.48,12-26.16,15.51-8,2.38-15.62,4.32-17,4.32-2.74,0-3.35,5.61-.77,7.2,3.35,2.07,28.36-4.65,42.31-11.38a85.8,85.8,0,0,0,25.62-19c10.84-11.62,15.62-13.58,13-5.31-.69,2.15-3.91,5.68-7.16,7.85s-8.47,7.47-11.58,11.77c-6.23,8.59-24.67,17.44-36.34,17.44-6.6,0-21.06,7.31-21.06,10.64,0,3.61,6.59,4,14.06.92,4.26-1.78,9.34-2.88,11.28-2.44,5.23,1.18,37.84-16.22,53.8-28.71,14.79-11.56,26.66-17.73,30.08-15.62s.36,4.94-10.44,10.44a95.05,95.05,0,0,0-16.43,10.8c-7.2,6.4-59.84,33.63-61.6,31.87S716,476.39,716,479.05c0,2.5,11.15,1.59,28.88-2.36,5.88-1.31,15.51-3.26,21.39-4.33,16.69-3,42.64-9.91,47.76-12.65,3.16-1.7,4.65-1.76,4.65-.21,0,1.26-1.69,2.91-3.75,3.68a52.23,52.23,0,0,0-9.09,5.13c-2.94,2.06-15.82,5.78-28.62,8.27-40.44,7.86-57.87,13.33-56.38,17.7,1.22,3.57,12.5,3.14,29.39-1.12,7.65-1.94,20.64-5.06,28.88-7L812,478.66c16.82-3.86,21.66-3.91,21.66-.25,0,2.46-69.93,19.7-79.62,19.63-4.25,0-27.33,10.16-27.33,12.07s16-.33,43.85-5.76c12.94-2.52,28.34-5.41,34.22-6.42l21.9-3.76c10.91-1.88,13.4-1.51,13.4,2,0,2.65-25.63,8.9-51.34,12.52-49.72,7-62.63,10.14-63.72,15.52-1,4.91,3.62,14.9,6.46,14,1.43-.48,3.15-3.2,3.82-6,1.38-5.87,4.69-7.13,27.77-10.55,8.83-1.31,22.44-3.77,30.26-5.47A137.51,137.51,0,0,1,820,513.27c10.17.23,11.15.53,5.22,1.6-4,.73-7.77,2.67-8.31,4.32-.78,2.36.87,2.74,7.77,1.82,6.13-.83,9.51-.26,11.28,1.87,3.25,3.91,2,5-7.32,6.5-10.35,1.68-19.3-.7-17.76-4.72,1.36-3.53-1.44-3.83-16.55-1.76-12.33,1.69-13.1,6.29-1.39,8.26a76.43,76.43,0,0,1,16.58,5.26,79.53,79.53,0,0,0,16.6,5.35c4.7.84,10,2.81,11.76,4.37s6.51,3.69,10.55,4.73c8.29,2.13,11.48,7,4.56,7-5,0-30.7-6.65-44.13-11.42-15-5.32-32.87-8.24-41.55-6.77-4.6.78-12.72,4.31-18.07,7.85L739.54,554l-9.37-3.58c-15-5.73-27.14-1.19-13.08,4.89,15.12,6.53,17.25,8.4,22.77,20,7.19,15,19,24.1,39.21,29.94s30.14,10.22,34.53,15.08c7.45,8.22-.32,7.86-27.05-1.28C748,605.82,737.68,599.38,731,584.28c-2.85-6.42-7.12-11.12-14.25-15.64-11.64-7.38-14.22-7.94-13.24-2.85.38,2,5,6.09,10.15,9.13,6.15,3.6,10.19,7.77,11.53,11.91,3.55,11,29.69,43.8,34.88,43.8.72,0,4.49,2.65,8.38,5.89s9.56,7.62,12.62,9.76c5.59,3.88,5.66,7.88.14,7.88-6.6,0-35-27.4-50.43-48.62-14.57-20.07-23.88-28.38-31.79-28.38-3.63,0,1,7.77,11.84,19.89,8.07,9,17.93,28.92,18,36.34,0,1.42,3.85,7.4,8.53,13.29,9.16,11.5,10.15,13.9,5.73,13.9S720.76,632,717,619.1c-5.58-19.19-23.3-37.66-36.13-37.66-5.63,0-3.93,3.83,5.47,12.3,10.58,9.54,16.67,21.87,16.73,33.89,0,5.86,1.4,10,4.13,12.45,4.91,4.44,9.91,15.78,7.87,17.82-2.75,2.75-8.74-3.13-11.68-11.46-1.62-4.57-7.09-17-12.15-27.64-7.73-16.2-10.46-19.91-16.92-23-4.24-2-10.33-3.67-13.52-3.67H655l5.51,4.81c10.36,9,20.55,24,21.84,32.15,1.65,10.41,10.65,30.06,17.49,38.18s12.87,20.79,10.89,22.77c-4.49,4.49-28.33-39.72-40.42-74.95-1.32-3.85-11.25-9.57-13.21-7.61-.59.59.9,5.58,3.33,11.07s5.66,16.5,7.18,24.47c3.33,17.46,4.55,19.83,24.29,47,15.35,21.12,18.48,28.32,12.33,28.32-3.45,0-13.94-15.11-13.94-20.08,0-1.68-3.39-7.11-7.54-12.07-8-9.62-22.4-33-22.4-36.47,0-1.14-1.89-7.45-4.2-14-5.13-14.61-13.84-26.47-19.44-26.47-5.8,0-5.34,6.71.86,12.54,2.77,2.6,6.21,8.79,7.64,13.74,7.21,25,20.8,55.39,32.45,72.63s15.62,26.54,10.56,24.8c-4.71-1.62-24.45-27.38-31.28-40.82-9.81-19.3-20.52-35.72-27.55-42.24-5.54-5.14-16.62-26-16.75-31.55-.08-3.18-5-3.58-6.83-.56-.72,1.17,0,7.57,1.48,14.23,2.22,9.64,4.16,13,9.53,16.53,3.7,2.43,9,8.06,11.73,12.51s5.62,8.09,6.39,8.09c5.08,0,14.85,29.15,17.93,53.47a92.67,92.67,0,0,0,5.55,21.13c2.24,5.15,4.07,10.69,4.07,12.3,0,3.12-3.4,4-4.94,1.33Zm-111-110c1.41-1.41,2.56-5.5,2.55-9.09V631.7l-4.25,6.42c-6.27,9.46-5.06,16,1.71,9.2Zm91.32-7.59a78.7,78.7,0,0,1-2.66-8c-1.64-6.28-11.41-16-16.06-16-3.66,0-3.72.31-.67,3.36,1.85,1.85,3.36,4.52,3.36,5.93,0,3.41,12.54,18.52,15.36,18.52C638.47,643.47,638.76,641.87,637.87,639.73Zm-174-29.15c4.31-3.68,7.92-7.41,8-8.29.42-3.76-7.29-1.12-14.05,4.81-4,3.53-9.2,6.42-11.51,6.42s-4.21,1.45-4.21,3.38c0,5.25,12.4,1.65,21.75-6.32Zm20.51-13.64c1.2-3.63-2.06-3.36-7.09.6-4,3.17-4,3.25,1,2.68C481.21,599.89,483.94,598.41,484.42,596.94Zm109.89-.64c2.77-4.14,3.42-4.21,11.7-1.28,11.51,4.08,14.51,2.24,11.32-6.94-3.27-9.37-.38-12.3,8.95-9.05,10.51,3.66,12.35,3,13.08-4.53,1-10.28,7-10.38,10.42-.17,2.3,7,2.9,7.52,4.33,3.86.91-2.33,1.73-7.85,1.81-12.26.12-6.39,1-8,4.2-8a6,6,0,0,1,5.34,3.35c.77,2,3.22,3.09,6.11,2.68,3.87-.55,4.95-2.26,5.48-8.71.52-6.28,1.57-8,4.82-8,2.28,0,4.15,1.44,4.15,3.21,0,8,5.61,1.47,10.59-12.3,1.18-3.24,3.12-5.88,4.33-5.88,2.82,0,2.86-7.89,0-9.63-3.59-2.22-2.42-6.56,3.51-12.95l5.64-6.09-5.93-10.8a161.31,161.31,0,0,0-13.86-20.43c-4.36-5.29-9.06-11.76-10.45-14.38-2.28-4.29-30.64-19.84-36.18-19.84-1.25,0-6.67-1.89-12-4.19-12.07-5.17-55.36-7.53-76.15-4.14-41.7,6.79-82.57,44.16-83.71,76.55-.33,9.27,1.44,14.47,12.79,37.49,7.24,14.7,13.17,28.63,13.17,30.95,0,6.78,11.65,13.77,20.25,12.16,5.85-1.1,7.82-.5,10.39,3.16,3.64,5.21,18.56,9.58,18.56,5.44a8.74,8.74,0,0,0-2.54-5.08c-5.05-5.06.09-4.79,10.1.53,9.32,5,10.68,5.17,15.05,2.31s5.44-2.69,11.95,1.94c9,6.36,9.21,6.38,12.77,1.06Zm-40.24-35.9c-4.92-3.14-10.7-9-12.85-13s-6.78-8.92-10.3-10.86c-8.18-4.51-9.53-12.92-3.11-19.34,4.33-4.33,6.25-4.57,30.61-3.8,28.73.9,33.41,2.47,50.59,16.91,5.29,4.45,12.34,9.12,15.66,10.37,8.23,3.11,6.76,9-2.83,11.34-4.12,1-9,3.58-10.78,5.7-6,7-12.25,8.76-30.25,8.58-15.42-.16-19-.95-26.74-5.88Zm46-12.46c.59-6.1,0-6.9-6.42-8.29a38,38,0,0,1-11.29-4.48c-5-3.47-16.82-3.84-22.66-.72-6.06,3.24-5.06,9.47,2.55,15.87,6.06,5.1,8.11,5.57,21.92,5l15.24-.62.66-6.76Zm-11-37.62c-6.89-3.63-20.29-8.15-29.79-10.05q-27.35-5.46-13.33-10.8c11.52-4.38,16.93-3.18,45.57,10.12,3.86,1.79,7.61,2.68,8.32,2,2.18-2.17-8.44-9.74-17.09-12.18-5.92-1.66-7.95-3.28-7.4-5.91,1-4.85,8.46-4.19,22.23,2,11.59,5.17,22.2,18.21,22.2,27.27,0,7.1-14.92,6-30.71-2.36Zm35.53,1.27c-1.47-.6-2.68-3.19-2.68-5.73,0-11.37-10.54-21.67-32.62-32-5.59-2.61-10.16-5.95-10.16-7.43,0-3.55,8.48-3.41,17.29.3,6.07,2.55,7.75,2.55,11.68,0s5.67-2.56,12.67.36c4.44,1.86,10.77,3.09,14.07,2.74,7.11-.74,28.92,13.91,30.77,20.69s1.41,13.53-1,15c-3.65,2.26-8.46-3.35-8.46-9.87a15.79,15.79,0,0,0-4.68-10.43c-7.3-6.8-8-5.21-2.52,5.63,5.75,11.34,6.3,16.26,2.23,19.64-3.38,2.81-7.87-.7-7.87-6.16,0-4.06-10-14.15-12.06-12.12-.76.76-.21,2.79,1.22,4.51,6,7.26.23,18.18-7.87,14.83Zm42.64,224.94a35.58,35.58,0,0,1-5.8-12c-3.1-14.11,5.59-9,9.71,5.7q4.9,17.5-3.91,6.33Zm-162-8.88c2.44-16.24,9.7-24.43,9.68-10.92,0,6.47-6.79,20.86-9.83,20.86-.74,0-.67-4.48.15-9.94Zm-69.31-45.94c1.34-2.5,9.68-11.41,18.54-19.79s20.83-20,26.61-25.74c7.46-7.47,11.16-9.84,12.79-8.21s.88,3.43-2.59,6.22a103.48,103.48,0,0,0-8.89,8.21c-2.2,2.35-12.28,13.18-22.4,24.06-10.71,11.53-20.08,19.79-22.44,19.79C434,686.25,433.81,685.6,435.89,681.71ZM780.13,457.54c0-1.27,1.33-2.31,3-2.31s4.19-1.49,5.7-3.31c2.72-3.29,15.53-9.72,25.3-12.7,9-2.75,4,3.74-8.45,11-12.71,7.41-25.5,11.08-25.5,7.32ZM634.75,397.1c.12-10.58,10.73-49.3,15.6-56.88,4.27-6.65,7.76,4.08,3.84,11.83a73.13,73.13,0,0,0-6.84,27.4c-.22,11.27-4.74,23.21-9.12,24.07C635.48,404.05,634.7,402.6,634.75,397.1Zm-47.08-8.59c.05-9.64,2.93-24.67,5.15-26.89.71-.71,2.36-.21,3.68,1.1,1.77,1.77,1.48,5.2-1.1,13.1-1.93,5.88-3.5,12.62-3.5,15s-1,4.88-2.14,5.61S587.64,394.12,587.67,388.51Zm-31.18-16.12c.84-12.62,2.07-23.82,2.72-24.88,3.18-5.13,4.78,6.89,3.51,26.28-1.12,17-2.08,21.55-4.59,21.55-2.71,0-3-3.38-1.64-22.95ZM802.26,795.47c7.78-3,19.92-15.94,25.85-27.62,4.69-9.27,11.92-32.66,11.92-38.59,0-5.72-3.58-1.56-6.15,7.14-7.72,26.13-21.77,46.18-37.65,53.71-4.15,2-7.54,4.43-7.54,5.48,0,2.47,6.9,2.42,13.57-.12Zm212.49-56.26c10.32-5.05,27.24-21.4,26-25.13-.52-1.55-3-.39-6.38,3-7.09,7.08-18.59,14.88-31.94,21.64-5.79,2.94-10.53,5.88-10.53,6.54,0,2.08,13.53-1.51,22.85-6.07Zm-33-4.13c8.83-3.44,7.1-6.05-4-6.05-8.13,0-9.46-.52-7.46-2.93,1.34-1.61,7-4.66,12.56-6.78A158.47,158.47,0,0,0,999.21,712c6.29-3.49,11.57-9.76,9.73-11.55-.55-.53-10.62,3.65-22.39,9.29s-30.29,12.44-41.17,15.11c-24.37,6-25.75,8.69-6.45,12.69C949.56,739.76,973.25,738.39,981.74,735.08Zm-39-3.91c0-1.18,2.83-2.14,6.29-2.14s6.89,1,7.62,2.14-1.76,2.14-6.29,2.14C946.13,733.31,942.7,732.35,942.7,731.17Zm-352.94,3.36c2.94-.37,7.27-.82,9.62-1,9.52-.76-2.39-3.91-13.87-3.67-9.68.21-11.87,1-12.51,4.28s.1,3.82,5.32,2.55C581.67,735.86,586.82,734.89,589.76,734.53Zm-395.89-3.27c2.11-1.13,5.39-4.43,7.28-7.32l3.46-5.27-6.9,2.4c-3.79,1.33-12.82,2.46-20.07,2.51-14.57.11-17.65,1.58-13.6,6.47,3.1,3.73,23.56,4.56,29.83,1.21Zm40.5-16.67c0-5.59,1.46-13.05,3.32-16.57s3.38-7.45,3.39-8.7c0-3.5,10.82-12.81,20.47-17.65,4.79-2.4,10-5.87,11.5-7.72a10.18,10.18,0,0,1,6.81-3.37c2.2,0,4-1,4-2.14,0-2.8-7.52-2.7-18.14.25-11.57,3.21-25.82,13.37-32.12,22.9-6.09,9.21-9,28.54-5.6,37.28C231.5,727.87,234.43,725.89,234.37,714.59Zm670.65.78c1.16-4.63,22.05-20.56,27-20.56,1.19,0,2.17-1.45,2.17-3.21,0-2-2-3.21-5.44-3.21-9.74,0-35.59,28.4-31.65,34.78,1.64,2.65,6.54-2.14,8-7.8Zm-308,1.9c-1.1-4.4-.56-5.35,3.05-5.35,2.41,0,5-1,5.7-2.14s-.66-2.14-3.08-2.14c-6.44,0-5.43-6.13,1.43-8.74,6.55-2.49,9.06-5.53,9.1-11s-5.34-4.52-8.13,1.61-9.47,7.38-8.5,1.6c.41-2.45-1-4-4-4.4-5.91-.84-11.95,9.92-8.76,15.62,1.45,2.59,1.29,4.22-.5,5.33s-.59,2.11,3.15,3c4,1,5.37,2.42,4.47,4.75-1.59,4.16.2,7.2,4.26,7.2,2.27,0,2.76-1.47,1.78-5.34ZM977.46,700c2.06-.63,3.75-2.53,3.75-4.22,0-2.31-3-3.05-12.3-3-20.56,0-24.42,7.14-4.36,8C969.59,700.92,975.4,700.58,977.46,700ZM91.57,686.09c15.71-11.18,31.45-15.38,62.89-16.77,16.47-.73,31.15-2.09,32.62-3s2.67-3.48,2.67-5.67c0-2.79,3-5.08,10.16-7.7,10.08-3.7,16.25-8.67,14.42-11.63-1.26-2-11.74,0-11.74,2.32,0,2-24.69,17-27.93,17a1.77,1.77,0,0,1-2-1.6c.07-1.89,41.89-29.25,47.89-31.34,2.68-.93,3.38-2.15,2-3.52-3.69-3.69-19,3.18-33.92,15.24-6,4.84-22.29,10.88-25,9.24-2-1.23,14.82-13.58,30.76-22.59,9.49-5.36,10-6.74,1.68-5-4.12.87-8,2.24-8.56,3-3.51,4.79-25.73,9.22-27.08,5.4-1.24-3.51,17.74-11.67,27.14-11.67,6,0,8.5-.92,8.5-3.08,0-5.36-2.94-5.32-21.79.34-17.16,5.14-25.27,5.47-25.27,1,0-1,4.09-3.08,9.09-4.57,15.63-4.65,19.51-6.6,17.35-8.76-1.26-1.26-4.78-1.22-9.4.11A64.48,64.48,0,0,1,151.47,605c-7,0-7.14-.18-3.7-4s3.32-4.16-1.24-7.2c-4.37-2.89-4.53-3.59-1.67-7,3-3.64,2.3-3.74-15-2.23-29.81,2.6-37.24,8-32.12,23.55,3.37,10.22,14.76,16.64,30.71,17.3,6.87.28,13.46,1.48,14.63,2.66,3.12,3.12-1.75,11.16-6.76,11.16-2.24,0-10.93,2.54-19.3,5.64-23.91,8.87-40.77,29-35.59,42.47C83,691.52,84.14,691.39,91.57,686.09Zm1000.34-47.43c3.73-7,4.82-12.63,4.81-24.7,0-13.58-.66-16.27-5.09-20.7-5.63-5.63-26.87-16.82-36.18-19.07-24.35-5.87-63.55-6-63.55-.27,0,1.89,8,3,28.35,3.86,30.25,1.3,49,6.1,58.82,15,9.48,8.64,4.86,13-7,6.53-19.14-10.43-22.45-11.44-36.8-11.24l-14.54.21,12.83,2.74a210.53,210.53,0,0,1,22.93,6.38c14.43,5.22,28.59,22.55,18.43,22.55-1.23,0-5.74-2.7-10-6-14.09-10.83-23.82-13.81-42.28-13-15.63.72-16.87.45-19.15-4.1-2.09-4.19-2.8-4.43-5-1.72-4.19,5.05-2,12.9,3.9,13.73,2.8.39,5.84-.48,6.75-1.94,2.12-3.44,24.18.58,38.94,7.09,10.16,4.48,12,6.61,8,9.1a4.38,4.38,0,0,0-2.13,3c0,2.56,10.85,13.06,18.18,17.58,10.1,6.24,14.37,5.13,19.79-5.11Zm-154,0c4.28-3.41,3.2-6.36-5.35-14.57a204.63,204.63,0,0,1-15.18-16.73c-3.94-5-10.68-11.21-15-13.89-9.22-5.74-26.82-11-30.11-8.93-3.89,2.4-2.57,9,2.51,12.56,4.8,3.36,4.8,3.36-2.14,3.47-8,.13-8.17.54-3.5,7.68,3.82,5.82,3,6.2-7.21,3.28-8.48-2.43-8.79-.51-1.06,6.6,15.82,14.55,28.2,20.51,49.74,24,7.52,1.2,24.08-.88,27.27-3.42ZM309.75,625.74c4-2.69,7.32-6.3,7.39-8,.26-6.19,3.56-10.36,10.22-12.9,5.07-1.94,5.84-2.83,3-3.52a5.3,5.3,0,0,1-3.75-4.93c0-3.17-1.87-4.13-9.09-4.65-6-.43-8.9-1.59-8.53-3.39.85-4.2-4.94-5.41-13.07-2.73-7.31,2.42-29.25,24-29.15,28.72.06,3.33,6.55,11,11.71,13.83C286.1,632.32,301.79,631.11,309.75,625.74Zm-54.1-15.92c.54-3.62-1.32-5.09-10.16-8-9.64-3.21-17.75-10.46-27.32-24.46-.34-.49-1.25-.26-2,.52-1.76,1.76,6.91,18.89,12.7,25.11,4.73,5.08,20.61,13,24,11.94C254,614.55,255.29,612.26,255.65,609.82Zm11.11-23c0-1.76-.89-3.2-2-3.2s-5-5.27-8.67-11.7c-5.36-9.36-6.25-12.52-4.44-15.9,4.09-7.64,2.76-16.41-2.88-19-2.82-1.28-5.71-1.76-6.42-1-5.05,5,5.91,41.45,14.83,49.23,6.42,5.6,9.56,6.12,9.56,1.6Zm-71.21-17.64c1.87-5.09,4.91-6.88,11.72-6.92,6.37,0,6.93-.61,9-9.18l1.42-5.93-8.08,3.54c-9.6,4.21-14.24,4.81-15.19,2-.38-1.15,6.1-4.35,14.39-7.11l15.08-5-4.67-6.31c-2.65-3.58-5.94-5.83-7.61-5.19A16.93,16.93,0,0,1,207,530.1c-.89,0-2.71,2.4-4.05,5.35-2.08,4.55-3.87,5.34-12.11,5.34-9.52,0-11.56-1.44-7.74-5.45a14.71,14.71,0,0,0,2.69-6.31c.62-3.5,2.9-4.47,12.49-5.35,8.95-.82,11.89-2,12.44-4.81.61-3.24-1.07-3.75-12.41-3.75-8.2,0-12.62-.8-11.8-2.13.73-1.18,7.54-2.14,15.14-2.14,13.73,0,30.85-3.85,30.85-6.94,0-.89-13.47-1.62-29.94-1.62-17.59,0-30-.84-30-2,0-2.6,12.31-4.95,21.69-4.15,16.94,1.45,38.65-6.28,28.55-10.16-2-.78-6.73-.4-10.4.87s-16.1,2.37-27.61,2.47c-17,.14-21.16-.44-22.19-3.12-1.75-4.57.35-6.06,4.93-3.5a7.75,7.75,0,0,0,7.71.09c5.31-2.84,2.66-6.13-4.95-6.13-5.26,0-6.29-.86-6.29-5.27,0-6.53-7.34-11.23-11.78-7.55-1.63,1.35-4.53,7.19-6.45,13-2.92,8.78-4.37,10.53-8.72,10.53-8.2,0-22.43-14.79-30.72-31.93-4-8.36-8.37-14.87-9.6-14.47-4.09,1.35-3.65,9.72,1,20.11,6.7,14.82,8.38,20.87,11.67,41.88,2.1,13.43,5,22.56,10.15,31.95,7.42,13.52,9.44,14.9,25.82,17.64,5,.85,11.44,4.34,16.77,9.15,7.77,7,14.41,9.52,29.16,11,1.51.15,3.37-1.41,4.13-3.47Zm856.22-19c2.93-3.06,2.53-3.24-4.25-1.88-4.12.83-8.93,3-10.7,4.77-2.87,2.92-2.42,3.12,4.25,1.87C1045.17,554.16,1050,552,1051.77,550.16Zm-44.89-3.86c13.53-1.63,26.52-3.64,28.87-4.47,12.45-4.37,24.2-10.78,29.81-16.27,3.46-3.38,7.56-6.16,9.1-6.16,5.69,0,2.54,8.49-6.29,16.93-5,4.78-8,8.71-6.67,8.72,5.93.06,18.36-7,21.71-12.38,2-3.23,7.82-11.3,12.87-17.92,9.83-12.88,13.69-25.6,8.69-28.69-1.6-1-16.38-2-32.85-2.31s-36.69-.7-44.92-.94c-12.07-.35-18.6.86-33.64,6.23-21.7,7.75-30.65,12.92-27.6,16,1.36,1.36,4.5,1.25,9-.31,8.22-2.87,21.23-3.18,21.23-.51,0,2.16-11.13,7.78-19.63,9.89a22.1,22.1,0,0,0-9.42,5.52c-3.54,3.91-3.48,4.08,1.45,4,6,0,22.38-4,43.64-10.59,22-6.8,24.6-7.28,24.6-4.57,0,4.13-12.78,10.45-28.65,14.16-22.74,5.31-35.52,9.67-35.52,12.12,0,4.41,47.12-4.68,64.36-12.41,13.22-5.94,21.9-5.74,16.82.38-4.75,5.72-20.94,11.77-42.42,15.87-19.44,3.7-39.51,10.23-32.34,10.52,1.76.07,14.28-1.2,27.81-2.83ZM1002,503.15c-2.53-2.53.62-5.14,6.22-5.14,3.36,0,5.07,1,4.52,2.68C1011.78,503.68,1004.28,505.4,1002,503.15ZM236,473.4c2.05-5.34-1.25-18.17-4.67-18.17-2.25,0-3.11,2.59-3.11,9.27,0,5.1.64,9.91,1.42,10.7C232.05,477.57,234.74,476.81,236,473.4Zm721-12.85c4.26-1.78,7.18-3.8,6.49-4.49-1.6-1.59-16,3.1-17.68,5.74-1.79,2.9,2.37,2.43,11.19-1.25Zm25.08-17.08c4.28-11.81,8.66-16.56,20-21.64,6.18-2.78,11.23-6.06,11.23-7.29,0-10.81-86.07-20.93-96.64-11.37-3.67,3.32-3.69,3.81-.37,7.49,2.23,2.46,6.51,3.93,11.44,3.93,6.41,0,8.35,1,10.41,5.56,1.88,4.13,3.48,5.14,6.23,4,8.21-3.57,17.52-3.63,18.87-.13,1,2.7,3.14,3.14,9.86,2.06,7.6-1.21,8.47-.91,7.8,2.69-.42,2.23-3.88,5.43-7.71,7.11-7.71,3.4-8.88,7.82-3.2,12.18,5.49,4.21,9.47,2.71,12.11-4.54ZM281.28,442.1c-.45-1.34-4.93-4-10-6-14.64-5.73-9.26-9.67,7.75-5.68,10.61,2.49,8.94-3.39-2.46-8.63-8.22-3.79-10.09-4-14.88-1.46S256,422.75,254,419a20.27,20.27,0,0,1-2.22-5.49c0-1.56,29.58,0,41.17,2.23,6.4,1.21,8,.86,8-1.71,0-4.44-10.68-8.47-26.4-10-9.72-.93-13.17-2.1-13.17-4.46,0-3.53,4.33-3.67,29.7-.95,12.13,1.3,14.55,1.05,13.74-1.41-1.26-3.85-13.38-8.06-23.65-8.22-4.41-.07-8-1-8-2.08,0-3.21,4.82-3.87,13.72-1.88Q301,388.25,301,382c0-4.26-29.27-10.4-38.55-8.09L242.16,379c-7.06,1.77-19.82,4.85-28.36,6.82s-16.09,4.5-16.76,5.6c-2.31,3.73,4.93,11.46,21.26,22.69,8.95,6.16,16.86,11.2,17.57,11.2s5.3,3.29,10.21,7.3,12.28,8.26,16.4,9.43c10.5,3,19.78,3.05,18.8.09Zm681.33-81.72c6.82-1.77,13.57-4.18,15-5.35,5.45-4.53,28.45-5.28,44.12-1.44,18.56,4.55,25.8,3.27,25.8-4.57,0-8.84-12.55-19.53-35.88-30.54-10.62-5-13.09-9.47-8.23-14.84,7.52-8.31,2.66-10.9-20.52-10.95-9,0-18.21,1.47-24.6,3.95-11.41,4.43-32.75,7.19-36.7,4.75s-.39-8.65,5.84-9.89c3.11-.62,10-2.55,15.27-4.27s12.37-3.14,15.71-3.13,8.53-1.92,11.52-4.27,6.84-4.28,8.56-4.28c3.29,0,32.66-27.23,32.66-30.27,0-2.22,17.84-25.79,22.34-29.52,1.83-1.52,3.33-3.7,3.33-4.84s1.93-4.52,4.28-7.52c4.94-6.28,5.8-17.69,1.34-17.69-1.62,0-8.5,2.46-15.29,5.46-16.48,7.28-22.44,6.44-25.44-3.6l-2.32-7.75-17.11,9.69c-30.51,17.28-31.5,17.71-34.6,15.15a9.39,9.39,0,0,1-2.84-6.38c0-6.27-6-4.78-16.81,4.21a205.4,205.4,0,0,1-20.18,14.43l-18.18,11c-4.36,2.63-9.51,4.79-11.44,4.81-5.2.05-6.52-5.81-2.89-12.83,1.79-3.47,3.19-11.81,3.19-19.06,0-11.73-.53-13.23-5.88-16.64-8.4-5.34-9-6.73-9.06-20.29,0-6.7-1-12.79-2.25-13.55s-6.52.39-11.76,2.55c-8.5,3.5-9.54,4.67-9.54,10.82,0,6.73-9.92,27.82-16.62,35.36-5.29,6-1.78,6.44,3.78.51,5-5.33,10.69-7.11,10.69-3.34,0,1.1-2.33,6.6-5.19,12.23-6,11.75-5.21,15.29,2.18,10.44,4.85-3.18,5.15-3.12,5.15.93,0,2.37-1.93,9.37-4.28,15.56C831,248,830.46,252,833.61,252c1.18,0,2.14-1.87,2.14-4.16,0-4.32,8-11.4,10.9-9.62.91.56.16,5.39-1.66,10.72s-2.8,10.21-2.18,10.83,3.76-.6,7-2.71l5.86-3.84-1.57,8.48c-.87,4.67-3.07,10.15-4.9,12.18-2.73,3.05-2.83,4.3-.58,7,2.45,3,3.17,2.91,7-.49,4.07-3.66,4.35-3.62,7.45,1l3.22,4.82,7.76-4.62A99.36,99.36,0,0,0,887.21,272c3-2.75,6.37-5,7.48-5s8.76-5.29,17-11.72,17.61-13.7,20.84-16.16c12.07-9.23,34.32-19.38,41-18.73,5.43.53,6.59,1.58,6.59,6,0,4.62-1.17,5.51-8.56,6.54-4.7.65-10.72,2.37-13.37,3.81s-4.81,2-4.81,1.29-4.57,2.4-10.16,7-19.79,15.43-31.55,24.12c-26.55,19.62-33.16,25.59-33.16,29.93,0,5,12.19,9.59,25.47,9.65,7.3,0,11.9,1,12.48,2.72s-1.29,2.67-5.42,2.67c-6.31,0-13,5.22-10.3,8,.79.79,5.75.29,11-1.12a72.78,72.78,0,0,1,16.51-2.42c6.53.13,6.65.27,2.1,2.46-2.64,1.28-4.81,3.65-4.81,5.28,0,2.26,1,2.44,4.14.74,5-2.7,18.7-2.92,20.31-.32,1.25,2-17.69,10.94-23.24,10.94-1.84,0-3.35.86-3.35,1.91,0,4.52,6.87,3.78,19.22-2.06,12.84-6.07,27.84-8.36,27.84-4.25,0,3-4.13,5.13-16.94,8.68-6.38,1.77-12,4.56-12.59,6.21-1.44,4.38,16.49,1.58,25.63-4,6.5-4,21-6.09,21-3.09s-10.08,9.3-15,9.37c-3,0-8.84,1.92-13.08,4.19a64.75,64.75,0,0,1-15.48,5.59c-4.27.8-7.77,2.42-7.77,3.59,0,2.42,8,1.41,26.32-3.34Zm-25.44-78.71c-.72-1.17-1-2.41-.56-2.75,6.74-5.6,20.25-14.07,22.46-14.07,4.78,0,3.25,8.22-2.2,11.79C949.48,281.49,938.75,284.22,937.17,281.67Zm-5.9-11.38c-1.88-4.9,16.87-21.69,32.28-28.9,16.38-7.66,17.66-7.82,17.66-2.17,0,2.9-2.63,5.53-8,8-4.42,2-14.28,8.09-21.93,13.45C932.4,273.9,932.61,273.79,931.27,270.29ZM732.56,347.94c1.87-1.88,3.23-1.84,5.61.13,2.58,2.14,4,1.4,8.11-4.16A35.2,35.2,0,0,1,759.17,334c14.26-5.73,25.15-24.65,25.21-43.81,0-11.77-1.54-16.75-5.3-16.75-7.19,0-31.43,13.79-37.33,21.24-7.58,9.58-19.67,42.93-15.55,42.93,6,0,15.08-5.83,17-11,2.76-7.31,7-8.08,7-1.29,0,5-9.16,16.56-13.12,16.56-1.24,0-4.7,1.93-7.69,4.28-3.32,2.61-4.25,4.28-2.37,4.28a9.22,9.22,0,0,0,5.55-2.48ZM265.1,332.46c1.47-2.24-.44-3.5-9.71-6.45-6.61-2.1-1.68-5.54,7.93-5.54a131.44,131.44,0,0,1,21,2.38c8.25,1.66,13.08,1.71,15.83.17,3.55-2,3.31-2.37-2.43-3.69-3.51-.81-10.62-2.85-15.8-4.53a130.79,130.79,0,0,0-18.78-4.34c-11.21-1.54-13.47-4.1-6.44-7.3,4.07-1.86,8.65-1.41,21.53,2.13,19.43,5.32,33.94,5.82,37.71,1.28,2.29-2.76,1.47-3.21-5.84-3.21-4.68,0-15.14-2.41-23.25-5.35a81.83,81.83,0,0,0-29.07-5.35c-16,0-20.2-2.64-10-6.21s25.25-2.81,39.06,2.05c13,4.55,22.82,4.84,24.17.7.5-1.52-1.24-2-4.79-1.33-4.21.81-7.26-.56-12.39-5.54-7.52-7.28-22.72-11.92-46.69-14.25-12.21-1.19-16.54-.56-30.55,4.41-19.8,7-34.67,18.92-32.44,25.93,1.83,5.79,5,6.94,25.67,9.31,9.3,1.06,20.16,3,24.12,4.31,7.15,2.36,7.19,2.45,5.83,12.71-1.28,9.66-1,10.39,3.69,11.28,7.11,1.34,19.74-.75,21.59-3.57Zm204.75-4.65c-2.09-2.52-1.85-4,1.22-7.38,3.66-4,3.67-4.6.09-12.52-6.94-15.39-34.4-30.62-46.44-25.75-7.81,3.16-8.31,7.23-3,24.33,5.77,18.49,11.32,23.36,24.27,21.29,5.49-.88,9-2.58,9-4.38,0-5,2.94-3.19,9.62,5.86,4.62,6.25,6.62,7.71,7.13,5.2a9.12,9.12,0,0,0-1.9-6.65ZM330.93,291.39c0-4.53-10.16-25.56-13.81-28.6a10.17,10.17,0,0,1-3.3-6.85c0-2.34-2.77-5.69-6.42-7.76s-6.95-5.09-7.59-6.86-6-7-11.83-11.76c-20.51-16.45-43.18-48.64-48.12-68.35-2.45-9.75,2.89-5.88,9.82,7.12,3.68,6.91,9.57,15.81,13.08,19.78l6.38,7.22-1.36-8.55a87.62,87.62,0,0,0-5.33-17.61c-2.28-5.19-3.12-9.58-2-10.29,3.42-2.11,5.59.66,10.48,13.42,11.38,29.67,15.76,39.23,20.51,44.76,9.43,11,8.62,5.9-6.69-42.05-1.69-5.29-3.06-11.31-3.06-13.37,0-5.87,5.67-4.38,8.11,2.14,4.31,11.53,5.24,14.64,9.17,30.39,2.18,8.77,6.3,20.32,9.15,25.67,11,20.75,15.35,27.87,16.9,27.88,3.45,0,1.32-9.06-4.14-17.67-3.16-5-6.42-12.9-7.25-17.6-4-23-9-43.79-12.79-53.23-4.8-12-5.28-17-1.53-15.77,2.61.87,14.24,31.68,14.4,38.16.39,16.13,25.51,70.41,32.57,70.41,2.22,0,1.45-13.63-1.66-29.41-1.49-7.57,1-9.06,6.26-3.78,2.75,2.75,9.69,22.75,12.71,36.63,2.09,9.63-7.45,15.54-13.44,8.32-2.93-3.53-8.1-4.1-12.42-1.36-4,2.52,5.47,8.37,16.31,10.11,7,1.11,9.31.52,13.17-3.34,4.07-4.08,4.5-6.13,3.27-15.74a129.09,129.09,0,0,0-7.63-30.31c-15.33-38.87-18.08-51.2-11.12-49.86,2.66.51,4.15,3.68,5.2,11.06a89.32,89.32,0,0,0,6.77,21.37C376.32,231.93,378,236,379.3,243.26c2.39,13.32,5.41,15.16,3.86,2.34-1.46-12.07-15.7-57.79-21.49-69-3.23-6.25-2.53-13.62,1.09-11.38,1.78,1.1,15.73,34.9,22,53.23,1.52,4.49,4.16,9.3,5.85,10.7,2.66,2.19,2.89.22,1.68-14.2-1.19-14.1-3.12-20.31-12.25-39.33-6.47-13.48-10.06-23.38-8.91-24.53,2.39-2.39,5.22,1.08,9,11.08,1.57,4.12,6.23,12.29,10.36,18.17,5.74,8.17,7.8,13.6,8.74,23.05,1.8,18.09,5.43,16.24,6-3.05.36-12.58-.25-16.65-2.61-17.56-1.69-.65-6-7.54-9.48-15.31a152.89,152.89,0,0,0-15-25.23c-20.67-26.73-24.73-29.61-26.95-19.11s-2.71,12.19-7.37,24.07c-3.69,9.4-4.63,16.37-4.69,34.76-.06,20.56-.46,23-3.86,23-4.6,0-7.39-6.63-11.54-27.42-5-24.84-23.08-58.67-29.35-54.8-1.15.71-4.46,5.05-7.36,9.63-8,12.72-11.84,12.91-54.22,2.78-15.77-3.77-17.68-2.59-15.79,9.73,1.37,8.85,5.08,16.82,13.74,29.49,3.38,4.93,6.72,13.22,7.43,18.4,1.11,8,.57,10.1-3.63,14-3.26,3-7.7,4.59-13.09,4.59-4.57,0-8.15,1.05-8.15,2.38,0,2.6,11.63,14,23.53,23,4.12,3.12,8.76,6.88,10.31,8.34,4.25,4,13.22,5.68,15.94,2.95,3.61-3.6,9.06-2.93,18.07,2.21,15.25,8.69,18.79,10.33,22.4,10.34,2.45,0,4.63,3.3,6.73,10.18,1.92,6.24,3.2,8.3,3.34,5.34.12-2.64,1.15-4.81,2.28-4.81,3.19,0,6.42,7.41,7.89,18.12,1.08,7.89,1.88,9.27,4.25,7.31a8.25,8.25,0,0,0,2.91-5.31Zm342.58-49.53c5.3-6.36,8.24-15.27,10.59-32.19,1.28-9.2,4.5-20.46,7.44-26,2.84-5.35,5.17-10.63,5.17-11.74s2.09-4.25,4.65-7c4.73-5,10.32-6.61,10.32-2.91,0,4.33-5.3,14.17-9.5,17.62-3.21,2.64-5.07,8.12-6.91,20.32-1.38,9.19-3.47,21-4.65,26.33-1.24,5.57-1.35,10.45-.26,11.57,2.68,2.75,8.49-2.61,8.49-7.84,0-4.59,3.61-19.12,6.5-26.19,1-2.35,3.34-9.32,5.28-15.48S715,176.67,716.07,176s3.81-5.48,6.13-10.72c3.83-8.65,5.15-9.85,10.34-9.4,2.69.24.58,6.14-6,16.87-3.45,5.61-6.28,12.31-6.28,14.88s-2.38,9.14-5.29,14.6c-3,5.69-4.8,11.85-4.16,14.41s-.37,7.34-2.19,10.83-3.31,8.72-3.32,11.62c0,10.7,6.19-.58,11.17-20.27,2.68-10.58,7.27-23.08,10.21-27.78,5.17-8.28,12.64-28.74,12.89-35.3.07-1.76,4.42-9.95,9.68-18.18,14.36-22.52,14.63-23.83,4.35-21.25-4.23,1.07-5.35,2.4-4.43,5.3,2.81,8.87-19.3,29.12-26.76,24.51-3-1.85,1.37-9.63,5.41-9.63,1.73,0,3.14-1,3.14-2.14,0-4-3.19-2.13-15.55,9.11-6.79,6.17-15.35,13.56-19,16.44-10.9,8.53-21.68,33.93-23.15,54.55-.68,9.48-2.41,19.33-3.84,21.9-4.92,8.79-1.94,12.75,4.13,5.49Zm-47.46-9c3.41-6.37,2.64-7.61-2.07-3.35s-5.57,7.49-2.21,7.49C622.9,237.05,624.83,235.18,626.05,232.91ZM581.2,220.38a109.49,109.49,0,0,1,3.21-22.56c1.76-6.78,3.23-14.44,3.26-17s2-10.39,4.28-17.34c3-8.86,4.23-18.4,4.23-32,0-19.49-2.86-23.43-4.88-6.72-1.47,12.18-7.61,41.43-10.54,50.26-1.37,4.12-2.68,13.75-2.92,21.39a236.42,236.42,0,0,1-2,24.07c-1.35,8.62-1.06,10.16,1.89,10.16C580.45,230.63,581.2,228.43,581.2,220.38Zm27.12-19.7c6.65-19.09,9.12-46.14,6.7-73.36-1.23-13.88-1.63-25.85-.88-26.6,6.31-6.31,12.06,43.09,8.2,70.49-4,28.42-6.39,39.48-10.26,47.64s-2.69,12.51,2,7.37c5.7-6.27,16.48-34.73,17.75-46.85,1.49-14.25,3.37-18.46,7.2-16.09,3.48,2.14,1.18,31.81-3.29,42.5-3.74,9-3.84,9.88-1.09,9.88,4.75,0,15.6-31.16,15.65-44.92.05-16.12-8.17-43.66-15.64-52.41-2-2.36-5.39-9.09-7.5-15-4.52-12.56-14.94-24.59-21.32-24.59-5.35,0-9.63,3.8-9.63,8.53,0,1.88-4.26,7.58-9.46,12.69s-9,10.55-8.34,12.18-1.07,3.73-4.38,5c-3,1.15-8.33,6.21-11.8,11.26A130.07,130.07,0,0,1,551.57,142c-3.83,3.88-3.94,4.61-1,6.49s3.06,4.22.71,20.22c-3.46,23.67-2.54,32.29,3.76,35.41a26.84,26.84,0,0,1,8,6.47c2.68,3.5,3.37,3.61,5.23.83,1.18-1.77,2.17-6.28,2.18-10s1-7.42,2.18-8.14,2.14-4.4,2.14-8.15c0-6.72,4-28.54,8.38-45.33a87.65,87.65,0,0,0,2.26-17.65c0-7.68,1.38-10.46,8.65-17.95,4.74-4.88,9.31-8.16,10.17-7.3,3.15,3.17,1.32,72.24-2.37,89.33a170.27,170.27,0,0,0-3.43,31l.13,14.53,3.19-10.7c1.76-5.88,4.7-15,6.55-20.32Zm-50.65-13.56c0-11.51,7.77-49.4,11.28-55,3.22-5.17,6.51-5.43,5-.4-2.65,8.8-7.71,36.33-7.71,42,0,7.9-4.41,22.7-6.76,22.7C558.48,196.4,557.67,192.23,557.67,187.12Zm105.05,29.6c4.94-20.15,13.36-42.28,18.33-48.18,5.33-6.34,6.17-9.65,2.94-11.64-1.11-.68-5.77,4.31-10.35,11.11-8.84,13.11-21,52.48-18.35,59.39Q658.22,235,662.72,216.72Zm-145.69,9c0-1.51-1.3-4.63-2.9-6.95-5.09-7.41-11.8-31.36-15-53.7-4.75-32.72-19.83-62.16-36-70.21-8.3-4.14-11.61-4.18-13.15-.17-1.43,3.74,3.93,22.7,9.4,33.22,2.15,4.12,5,13.27,6.44,20.32,4.44,22.5,12.45,46.7,19.46,58.83,7.19,12.44,10.43,11.51,6.42-1.85-8.84-29.41-13.05-45.54-14.31-54.84-.8-5.88-2.77-12.79-4.39-15.36-5-7.93-11.6-27.18-9.92-28.86,6.45-6.45,20.14,24.28,28.27,63.48,4.43,21.36,11.23,42.32,16.49,50.8,5,8,9.2,10.44,9.2,5.29ZM476.45,211.5c-2.62-4.89-6.48-7.69-6.48-4.7,0,4.54,2.75,8.86,5.65,8.86C478,215.66,478.17,214.71,476.45,211.5Zm51.27-.2c0-1.22-3.33-10.86-7.41-21.41a354.84,354.84,0,0,1-11.77-37.56c-2.4-10.1-5.37-20-6.59-21.91-1.93-3-2.09-2.95-1.16.74,5,19.84,5.93,24.93,4.83,26-.69.7.15,4.63,1.87,8.74s3.12,9.46,3.12,11.88c0,6.9,6.89,26.87,11.41,33C524.39,214.09,527.72,214.35,527.72,211.3ZM542,197c-.54-2.08-1-.9-1.06,2.63s.4,5.23,1,3.79A12.23,12.23,0,0,0,542,197Zm2.8-12.19c0-1.4-1.42-4.41-3.14-6.69-2.92-3.86-3.15-3.49-3.21,5.2-.06,8.07.37,9,3.14,6.69C543.39,188.52,544.84,186.18,544.84,184.79ZM461.67,173c-1.26-4.18-3.35-13.38-4.65-20.44-3.21-17.4-6.64-28.87-8.64-28.87-2.83,0-4.46,8.32-3.05,15.55,4.89,25,11.16,45.12,15.36,49.36C463.54,191.46,464.18,181.32,461.67,173Z"/></svg>